{
  "accessors": [
    {
      "bufferView": 2,
      "componentType": 5126,
      "count": 65532,
      "max": [
        1099.69287109375,
        366.4643859863281,
        420.3581848144531
      ],
      "min": [
        -1100.5181884765625,
        -408.40631103515625,
        -416.8705139160156
      ],
      "type": "VEC3"
    },
    {
      "bufferView": 2,
      "byteOffset": 786384,
      "componentType": 5126,
      "count": 65532,
      "max": [
        1.0,
        1.0,
        1.0
      ],
      "min": [
        -1.0,
        -1.0,
        -1.0
      ],
      "type": "VEC3"
    },
    {
      "bufferView": 1,
      "componentType": 5126,
      "count": 65532,
      "max": [
        4.265900135040283,
        1.0263999700546265
      ],
      "min": [
        -3.265899896621704,
        -3.2638001441955566
      ],
      "type": "VEC2"
    },
    {
      "bufferView": 0,
      "componentType": 5125,
      "count": 358515,
      "type": "SCALAR"
    },
    {
      "bufferView": 2,
      "byteOffset": 1572768,
      "componentType": 5126,
      "count": 65532,
      "max": [
        1130.4407958984375,
        366.4643859863281,
        419.6182861328125
      ],
      "min": [
        -1130.4407958984375,
        -478.40631103515625,
        -420.3581848144531
      ],
      "type": "VEC3"
    },
    {
      "bufferView": 2,
      "byteOffset": 2359152,
      "componentType": 5126,
      "count": 65532,
      "max": [
        1.0,
        1.0,
        1.0
      ],
      "min": [
        -1.0,
        -1.0,
        -1.0
      ],
      "type": "VEC3"
    },
    {
      "bufferView": 1,
      "byteOffset": 524256,
      "componentType": 5126,
      "count": 65532,
      "max": [
        23.819499969482422,
        2.4453001022338867
      ],
      "min": [
        -23.149799346923828,
        -4.803899765014648
      ],
      "type": "VEC2"
    },
    {
      "bufferView": 0,
      "byteOffset": 1434060,
      "componentType": 5125,
      "count": 356913,
      "type": "SCALAR"
    },
    {
      "bufferView": 2,
      "byteOffset": 3145536,
      "componentType": 5126,
      "count": 2831,
      "max": [
        1130.3350830078125,
        365.62799072265625,
        389.1877136230469
      ],
      "min": [
        -1130.3350830078125,
        -453.40631103515625,
        -390.3656921386719
      ],
      "type": "VEC3"
    },
    {
      "bufferView": 2,
      "byteOffset": 3179508,
      "componentType": 5126,
      "count": 2831,
      "max": [
        1.0,
        1.0,
        1.0
      ],
      "min": [
        -1.0,
        -1.0,
        -1.0
      ],
      "type": "VEC3"
    },
    {
      "bufferView": 1,
      "byteOffset": 1048512,
      "componentType": 5126,
      "count": 2831,
      "max": [
        24.149799346923828,
        0.9706000089645386
      ],
      "min": [
        -22.819499969482422,
        0.048200011253356934
      ],
      "type": "VEC2"
    },
    {
      "bufferView": 0,
      "byteOffset": 2861712,
      "componentType": 5125,
      "count": 11676,
      "type": "SCALAR"
    },
    {
      "bufferView": 2,
      "byteOffset": 3213480,
      "componentType": 5126,
      "count": 17100,
      "max": [
        1035.5084228515625,
        478.4064025878906,
        86.46109771728516
      ],
      "min": [
        -1048.5013427734375,
        -93.41609954833984,
        -386.6221008300781
      ],
      "type": "VEC3"
    },
    {
      "bufferView": 2,
      "byteOffset": 3418680,
      "componentType": 5126,
      "count": 17100,
      "max": [
        0.9998131394386292,
        0.9999236464500427,
        0.9999648928642273
      ],
      "min": [
        -0.9998328685760498,
        -0.9977353811264038,
        -0.999699056148529
      ],
      "type": "VEC3"
    },
    {
      "bufferView": 1,
      "byteOffset": 1071160,
      "componentType": 5126,
      "count": 17100,
      "max": [
        0.9994999766349792,
        0.9994999766349792
      ],
      "min": [
        0.0005000000237487257,
        0.000500023365020752
      ],
      "type": "VEC2"
    },
    {
      "bufferView": 0,
      "byteOffset": 2908416,
      "componentType": 5125,
      "count": 102528,
      "type": "SCALAR"
    },
    {
      "bufferView": 2,
      "byteOffset": 3623880,
      "componentType": 5126,
      "count": 65532,
      "max": [
        1100.5965576171875,
        296.59521484375,
        378.8132019042969
      ],
      "min": [
        -1101.421875,
        -213.40679931640625,
        -392.781005859375
      ],
      "type": "VEC3"
    },
    {
      "bufferView": 2,
      "byteOffset": 4410264,
      "componentType": 5126,
      "count": 65532,
      "max": [
        1.0,
        1.0,
        1.0
      ],
      "min": [
        -1.0,
        -1.0,
        -1.0
      ],
      "type": "VEC3"
    },
    {
      "bufferView": 1,
      "byteOffset": 1207960,
      "componentType": 5126,
      "count": 65532,
      "max": [
        2.6552000045776367,
        1.0098999738693237
      ],
      "min": [
        -1.6552000045776367,
        -0.07169997692108154
      ],
      "type": "VEC2"
    },
    {
      "bufferView": 0,
      "byteOffset": 3318528,
      "componentType": 5125,
      "count": 360216,
      "type": "SCALAR"
    },
    {
      "bufferView": 2,
      "byteOffset": 5196648,
      "componentType": 5126,
      "count": 65532,
      "max": [
        1075.826416015625,
        291.59381103515625,
        383.9148864746094
      ],
      "min": [
        -1088.0267333984375,
        -213.40640258789063,
        -390.3662109375
      ],
      "type": "VEC3"
    },
    {
      "bufferView": 2,
      "byteOffset": 5983032,
      "componentType": 5126,
      "count": 65532,
      "max": [
        1.0,
        1.0,
        1.0
      ],
      "min": [
        -1.0,
        -1.0,
        -1.0
      ],
      "type": "VEC3"
    },
    {
      "bufferView": 1,
      "byteOffset": 1732216,
      "componentType": 5126,
      "count": 65532,
      "max": [
        14.290900230407715,
        3.384399890899658
      ],
      "min": [
        -13.290900230407715,
        -2.384399890899658
      ],
      "type": "VEC2"
    },
    {
      "bufferView": 0,
      "byteOffset": 4759392,
      "componentType": 5125,
      "count": 323589,
      "type": "SCALAR"
    },
    {
      "bufferView": 2,
      "byteOffset": 6769416,
      "componentType": 5126,
      "count": 65532,
      "max": [
        1077.6959228515625,
        307.0429992675781,
        383.1203918457031
      ],
      "min": [
        -1100.5179443359375,
        -213.4069061279297,
        -392.781005859375
      ],
      "type": "VEC3"
    },
    {
      "bufferView": 2,
      "byteOffset": 7555800,
      "componentType": 5126,
      "count": 65532,
      "max": [
        1.0,
        1.0,
        1.0
      ],
      "min": [
        -1.0,
        -1.0,
        -1.0
      ],
      "type": "VEC3"
    },
    {
      "bufferView": 1,
      "byteOffset": 2256472,
      "componentType": 5126,
      "count": 65532,
      "max": [
        14.280699729919434,
        3.384399890899658
      ],
      "min": [
        -13.280099868774414,
        -2.384399890899658
      ],
      "type": "VEC2"
    },
    {
      "bufferView": 0,
      "byteOffset": 6053748,
      "componentType": 5125,
      "count": 342339,
      "type": "SCALAR"
    },
    {
      "bufferView": 2,
      "byteOffset": 8342184,
      "componentType": 5126,
      "count": 20604,
      "max": [
        673.4169921875,
        291.59381103515625,
        -367.1170959472656
      ],
      "min": [
        -673.61328125,
        -173.4062957763672,
        -390.3662109375
      ],
      "type": "VEC3"
    },
    {
      "bufferView": 2,
      "byteOffset": 8589432,
      "componentType": 5126,
      "count": 20604,
      "max": [
        1.0,
        1.0,
        1.0
      ],
      "min": [
        -1.0,
        -1.0,
        -1.0
      ],
      "type": "VEC3"
    },
    {
      "bufferView": 1,
      "byteOffset": 2780728,
      "componentType": 5126,
      "count": 20604,
      "max": [
        0.9994999766349792,
        0.9994999766349792
      ],
      "min": [
        0.0005000000237487257,
        0.000500023365020752
      ],
      "type": "VEC2"
    },
    {
      "bufferView": 0,
      "byteOffset": 7423104,
      "componentType": 5125,
      "count": 116652,
      "type": "SCALAR"
    }
  ],
  "asset": {
    "extras": {
      "author": "163 (https://sketchfab.com/163)",
      "license": "CC-BY-4.0 (http://creativecommons.org/licenses/by/4.0/)",
      "source": "https://sketchfab.com/3d-models/shafa-gltf-1212a60c0be343b4b6d64a66aae0fca7",
      "title": "Shafa Gltf"
    },
    "generator": "Sketchfab-12.67.0",
    "version": "2.0"
  },
  "bufferViews": [
    {
      "buffer": 0,
      "byteLength": 7889712,
      "name": "floatBufferViews",
      "target": 34963
    },
    {
      "buffer": 0,
      "byteLength": 2945560,
      "byteOffset": 7889712,
      "byteStride": 8,
      "name": "floatBufferViews",
      "target": 34962
    },
    {
      "buffer": 0,
      "byteLength": 8836680,
      "byteOffset": 10835272,
      "byteStride": 12,
      "name": "floatBufferViews",
      "target": 34962
    }
  ],
  "buffers": [
    {
      "byteLength": 19671952,
      "uri": "scene.bin"
    }
  ],
  "images": [
    {
      "uri": "textures/wood_baseColor.jpeg"
    },
    {
      "uri": "textures/Default_baseColor.jpeg"
    },
    {
      "uri": "textures/pige_baseColor.jpeg"
    }
  ],
  "materials": [
    {
      "name": "wood",
      "pbrMetallicRoughness": {
        "baseColorTexture": {
          "index": 0
        }
      }
    },
    {
      "name": "Default",
      "pbrMetallicRoughness": {
        "baseColorTexture": {
          "index": 1
        }
      }
    },
    {
      "name": "pige",
      "pbrMetallicRoughness": {
        "baseColorTexture": {
          "index": 2
        }
      }
    }
  ],
  "meshes": [
    {
      "name": "Object_0",
      "primitives": [
        {
          "attributes": {
            "NORMAL": 1,
            "POSITION": 0,
            "TEXCOORD_0": 2
          },
          "indices": 3,
          "material": 0,
          "mode": 4
        }
      ]
    },
    {
      "name": "Object_1",
      "primitives": [
        {
          "attributes": {
            "NORMAL": 5,
            "POSITION": 4,
            "TEXCOORD_0": 6
          },
          "indices": 7,
          "material": 0,
          "mode": 4
        }
      ]
    },
    {
      "name": "Object_2",
      "primitives": [
        {
          "attributes": {
            "NORMAL": 9,
            "POSITION": 8,
            "TEXCOORD_0": 10
          },
          "indices": 11,
          "material": 0,
          "mode": 4
        }
      ]
    },
    {
      "name": "Object_3",
      "primitives": [
        {
          "attributes": {
            "NORMAL": 13,
            "POSITION": 12,
            "TEXCOORD_0": 14
          },
          "indices": 15,
          "material": 1,
          "mode": 4
        }
      ]
    },
    {
      "name": "Object_4",
      "primitives": [
        {
          "attributes": {
            "NORMAL": 17,
            "POSITION": 16,
            "TEXCOORD_0": 18
          },
          "indices": 19,
          "material": 2,
          "mode": 4
        }
      ]
    },
    {
      "name": "Object_5",
      "primitives": [
        {
          "attributes": {
            "NORMAL": 21,
            "POSITION": 20,
            "TEXCOORD_0": 22
          },
          "indices": 23,
          "material": 2,
          "mode": 4
        }
      ]
    },
    {
      "name": "Object_6",
      "primitives": [
        {
          "attributes": {
            "NORMAL": 25,
            "POSITION": 24,
            "TEXCOORD_0": 26
          },
          "indices": 27,
          "material": 2,
          "mode": 4
        }
      ]
    },
    {
      "name": "Object_7",
      "primitives": [
        {
          "attributes": {
            "NORMAL": 29,
            "POSITION": 28,
            "TEXCOORD_0": 30
          },
          "indices": 31,
          "material": 2,
          "mode": 4
        }
      ]
    }
  ],
  "nodes": [
    {
      "children": [
        1
      ],
      "matrix": [
        1.0,
        0.0,
        0.0,
        0.0,
        0.0,
        2.220446049250313e-16,
        -1.0,
        0.0,
        0.0,
        1.0,
        2.220446049250313e-16,
        0.0,
        0.0,
        0.0,
        0.0,
        1.0
      ],
      "name": "Sketchfab_model"
    },
    {
      "children": [
        2
      ],
      "name": "root"
    },
    {
      "children": [
        3
      ],
      "matrix": [
        1.0,
        0.0,
        0.0,
        0.0,
        0.0,
        2.220446049250313e-16,
        1.0,
        0.0,
        0.0,
        -1.0,
        2.220446049250313e-16,
        0.0,
        0.0,
        0.0,
        0.0,
        1.0
      ],
      "name": "GLTF_SceneRootNode"
    },
    {
      "children": [
        4,
        5,
        6,
        7,
        8,
        9,
        10,
        11
      ],
      "name": "Line015_0"
    },
    {
      "mesh": 0,
      "name": "Object_4"
    },
    {
      "mesh": 1,
      "name": "Object_5"
    },
    {
      "mesh": 2,
      "name": "Object_6"
    },
    {
      "mesh": 3,
      "name": "Object_7"
    },
    {
      "mesh": 4,
      "name": "Object_8"
    },
    {
      "mesh": 5,
      "name": "Object_9"
    },
    {
      "mesh": 6,
      "name": "Object_10"
    },
    {
      "mesh": 7,
      "name": "Object_11"
    }
  ],
  "samplers": [
    {
      "magFilter": 9729,
      "minFilter": 9987,
      "wrapS": 10497,
      "wrapT": 10497
    }
  ],
  "scene": 0,
  "scenes": [
    {
      "name": "Sketchfab_Scene",
      "nodes": [
        0
      ]
    }
  ],
  "textures": [
    {
      "sampler": 0,
      "source": 0
    },
    {
      "sampler": 0,
      "source": 1
    },
    {
      "sampler": 0,
      "source": 2
    }
  ]
}
